<svg version="1.2" xmlns="http://www.w3.org/2000/svg" viewBox="0 0 512 512" width="512" height="512">
	<style>
		.s0 { fill: #c69a2c } 
		.s1 { fill: #1d3c51 } 
	</style>
	<g>
		<path class="s0" d="m421.7 254.37h-131.91c-15.58 0.12-30.88-4.71-41.75-15.84-14-14.39-21.84-33.63-21.72-53.65 0.14-39.91 0.27-104.03 0.27-104.03 0-17.53-14.27-31.8-31.81-31.8h-122.35c-17.52 0-31.79 14.27-31.79 31.8v130.2c0 17.54 14.27 31.8 31.79 31.8h1.84c0 0 64.13-0.12 104.04-0.26 14 0 27.48 3.8 39.24 10.73l0.14 0.12c5.1 3.03 9.95 6.69 14.27 10.87 11.12 11 15.96 26.17 15.82 41.75v44.75c0.26 11.91 0.14 23.95 0 35.86q-0.19 31.4-0.38 62.8c0 23.56 19.1 42.67 42.65 42.67h131.65c23.56 0 42.66-19.11 42.66-42.67v-152.45c0-23.55-19.1-42.65-42.66-42.65z"/>
	</g>
	<g>
		<path class="s1" d="m458.44 180.31c0 6.63-5.36 11.99-11.97 11.99h-146.01c-6.56 0-11.98-5.36-11.98-11.99v-145.78c0-6.63 5.42-11.99 11.98-11.99h146.01c6.61 0 11.97 5.36 11.97 11.99z"/>
	</g>
</svg>