<svg version="1.2" xmlns="http://www.w3.org/2000/svg" viewBox="0 0 1000 470" width="500" height="235">
	<title>&lt;Group&gt;</title>
	<style>
		.s0 { fill: #1d3c51 } 
		.s1 { fill: #c69a2c } 
		.s2 { fill: #ffffff } 
	</style>
	<path id="Vorm 1" fill-rule="evenodd" class="s0" d="m27.1 12.1h945.8c8.3 0 15 6.7 15 15v415.8c0 8.3-6.7 15-15 15h-945.8c-8.3 0-15-6.7-15-15v-415.8c0-8.3 6.7-15 15-15z"/>
	<g id="&lt;Group&gt;">
		<g id="&lt;Group&gt;">
			<g id="&lt;Group&gt;">
				<g id="&lt;Group&gt;">
					<path id="&lt;Path&gt;" class="s1" d="m560.1 127.4h-48c-5.6 0.1-11.2-1.7-15.2-5.8-5-5.2-7.9-12.2-7.9-19.5 0.1-14.5 0.1-37.9 0.1-37.9 0-6.3-5.1-11.5-11.5-11.5h-44.5c-6.4 0-11.6 5.2-11.6 11.5v47.4c0 6.4 5.2 11.6 11.6 11.6h0.6c0 0 23.4 0 37.9-0.1 5.1 0 10 1.4 14.3 3.9v0.1c1.9 1.1 3.6 2.4 5.2 3.9 4 4 5.8 9.5 5.8 15.2v16.3c0 4.3 0 8.7 0 13.1q-0.1 11.4-0.2 22.8c0 8.6 7 15.5 15.5 15.5h47.9c8.6 0 15.5-6.9 15.5-15.5v-55.5c0-8.5-6.9-15.5-15.5-15.5z"/>
				</g>
			</g>
			<path id="&lt;Path&gt;" class="s2" d="m573.5 100.4c0 2.5-2 4.4-4.4 4.4h-53.1c-2.4 0-4.3-1.9-4.3-4.4v-53c0-2.4 1.9-4.4 4.3-4.4h53.1c2.4 0 4.4 2 4.4 4.4z"/>
		</g>
		<g id="&lt;Group&gt;">
			<g id="&lt;Group&gt;">
				<path id="&lt;Compound Path&gt;" class="s1" d="m132.9 341.6h-65.5q-2.5 0-5.4-0.6-2.9-0.6-5.7-1.9-2.8-1.2-5.4-3.2-2.6-2-4.6-4.8-2-2.9-3.2-6.6-1.1-3.7-1.1-8.4v-49.2q0-2.5 0.5-5.4 0.6-2.9 1.9-5.7 1.3-2.9 3.3-5.4 2-2.6 4.8-4.6 2.9-2 6.6-3.2 3.6-1.2 8.3-1.2h65.5v18.2h-65.5q-3.5 0-5.4 1.9-1.9 1.9-1.9 5.6v49q0 3.5 1.9 5.4 1.9 1.9 5.4 1.9h65.5z"/>
				<path id="&lt;Compound Path&gt;" class="s1" d="m213.6 284.2h-40.8q-3.7 0-5.6 1.9-1.9 1.8-1.9 5.4v50.1h-18.1v-50.1q0-4.7 1.2-8.4 1.2-3.7 3.2-6.5 1.9-2.8 4.5-4.8 2.6-2 5.4-3.3 2.9-1.2 5.8-1.8 2.9-0.6 5.4-0.6h40.9z"/>
				<path id="&lt;Compound Path&gt;" fill-rule="evenodd" class="s1" d="m307.4 316.1q0 4.7-1.2 8.4-1.2 3.7-3.2 6.6-1.9 2.8-4.5 4.8-2.6 2-5.4 3.2-2.8 1.3-5.7 1.9-2.9 0.6-5.5 0.6h-32.7q-3.8 0-8.3-1.4-4.5-1.3-8.3-4.3-3.8-3.1-6.3-7.9-2.6-4.9-2.6-11.9v-24.6q0-7 2.6-11.8 2.5-4.9 6.3-7.9 3.8-3.1 8.3-4.4 4.5-1.3 8.3-1.3h32.7q7 0 11.8 2.5 4.9 2.5 7.9 6.3 3 3.8 4.4 8.3 1.4 4.5 1.4 8.3zm-18.2-24.4q0-3.8-1.9-5.6-1.9-1.8-5.4-1.8h-32.6q-3.6 0-5.5 1.8-1.9 1.9-1.9 5.4v24.6q0 3.6 1.9 5.4 1.9 1.9 5.5 1.9h32.6q3.7 0 5.5-1.9 1.8-1.8 1.8-5.4z"/>
				<path id="&lt;Compound Path&gt;" class="s1" d="m395.7 316.1q0 4.7-1.2 8.4-1.2 3.7-3.1 6.6-2 2.8-4.6 4.8-2.5 2-5.4 3.2-2.8 1.3-5.7 1.9-2.9 0.6-5.5 0.6h-49.1v-18.2h49q3.7 0 5.6-1.9 1.9-1.9 1.9-5.4-0.4-7.3-7.4-7.3h-28.1q-6 0-10.2-2.1-4.2-2.1-6.8-5.2-2.6-3.2-3.8-6.8-1.1-3.6-1.1-6.8 0-6 2.2-10.2 2.1-4.2 5.4-6.7 3.3-2.6 7.1-3.8 3.9-1.1 7.2-1.1h44.6v18.1h-44.5q-1.4 0-2.2 0.3-0.8 0.4-1.1 0.9-0.4 0.5-0.5 1.1-0.1 0.6-0.1 1.2 0.1 1.1 0.5 1.7 0.3 0.6 0.8 0.9 0.6 0.3 1.2 0.3 0.7 0.1 1.3 0.1h28.1q7 0 11.9 2.5 4.9 2.5 7.9 6.3 3 3.8 4.3 8.3 1.4 4.4 1.4 8.3z"/>
				<path id="&lt;Compound Path&gt;" class="s1" d="m481.3 316.1q0 4.7-1.2 8.4-1.1 3.7-3.1 6.6-2 2.8-4.5 4.8-2.6 2-5.4 3.2-2.9 1.3-5.8 1.9-2.9 0.6-5.4 0.6h-49.2v-18.2h49q3.7 0 5.6-1.9 1.9-1.9 1.9-5.4-0.4-7.3-7.3-7.3h-28.2q-6 0-10.2-2.1-4.1-2.1-6.8-5.2-2.6-3.2-3.7-6.8-1.2-3.6-1.2-6.8 0-6 2.2-10.2 2.1-4.2 5.4-6.7 3.3-2.6 7.1-3.8 3.9-1.1 7.2-1.1h44.6v18.1h-44.4q-1.4 0-2.2 0.3-0.8 0.4-1.2 0.9-0.4 0.5-0.5 1.1 0 0.6 0 1.2 0 1.1 0.4 1.7 0.3 0.6 0.9 0.9 0.5 0.3 1.1 0.3 0.7 0.1 1.3 0.1h28.2q6.9 0 11.8 2.5 4.9 2.5 7.9 6.3 3 3.8 4.4 8.3 1.3 4.4 1.3 8.3z"/>
				<path id="&lt;Compound Path&gt;" class="s1" d="m612.5 341.6h-18.3v-59.7l-32.1 56.7q-1.2 2.1-3.3 3.2-2.2 1.2-4.6 1.2-2.4 0-4.4-1.2-2.1-1.1-3.3-3.2l-32.3-56.7v59.7h-18.1v-92.4q0-3.2 1.8-5.6 1.9-2.5 4.9-3.3 1.4-0.3 2.9-0.2 1.5 0.1 2.8 0.6 1.4 0.5 2.5 1.5 1.1 0.9 1.9 2.2l41.3 71.9 41.3-71.9q1.6-2.6 4.4-3.7 2.9-1.2 5.9-0.4 3 0.8 4.8 3.3 1.9 2.4 1.9 5.6z"/>
				<path id="&lt;Compound Path&gt;" fill-rule="evenodd" class="s1" d="m713.2 316.1q0 4.7-1.2 8.4-1.2 3.7-3.2 6.6-1.9 2.8-4.5 4.8-2.6 2-5.4 3.2-2.8 1.3-5.7 1.9-2.9 0.6-5.5 0.6h-32.7q-3.8 0-8.3-1.4-4.4-1.3-8.2-4.3-3.9-3.1-6.4-7.9-2.5-4.9-2.5-11.9v-24.6q0-7 2.5-11.8 2.5-4.9 6.4-7.9 3.8-3.1 8.2-4.4 4.5-1.3 8.3-1.3h32.7q7 0 11.8 2.5 4.9 2.5 7.9 6.3 3 3.8 4.4 8.3 1.4 4.5 1.4 8.3zm-18.2-24.4q0-3.8-1.9-5.6-1.9-1.8-5.4-1.8h-32.6q-3.6 0-5.5 1.8-1.9 1.9-1.9 5.4v24.6q0 3.6 1.9 5.4 1.9 1.9 5.5 1.9h32.6q3.7 0 5.5-1.9 1.8-1.8 1.8-5.4z"/>
				<path id="&lt;Compound Path&gt;" class="s1" d="m811.3 316.1q0 4.7-1.1 8.4-1.2 3.7-3.2 6.6-1.9 2.8-4.5 4.8-2.6 2-5.4 3.2-2.9 1.3-5.7 1.9-2.9 0.6-5.5 0.6h-32.8q-4.6 0-8.3-1.2-3.7-1.2-6.6-3.2-2.8-2-4.8-4.6-2-2.6-3.2-5.4-1.3-2.8-1.9-5.7-0.6-2.9-0.6-5.4v-24.6q0-7 2.6-11.8 2.5-4.9 6.3-7.9 3.8-3.1 8.3-4.4 4.5-1.3 8.2-1.3h32.8v18.1h-32.6q-3.6 0-5.5 1.9-1.9 1.8-1.9 5.4v24.4q0 3.7 1.8 5.6 1.9 1.9 5.4 1.9h32.8q3.7 0 5.5-1.9 1.8-1.9 1.8-5.4v-81.9h18.1z"/>
				<path id="&lt;Compound Path&gt;" class="s1" d="m909.8 291.1q0 3.7-1.3 8.1-1.3 4.4-4.3 8.1-3 3.7-7.7 6.3-4.8 2.5-11.7 2.5h-32.7v-17.3h32.7q3.7 0 5.8-2.2 2-2.3 2-5.7 0-3.5-2.3-5.6-2.3-2-5.5-2h-32.7q-3.7 0-5.7 2.3-2 2.3-2 5.6v25.4q0 3.6 2.2 5.6 2.3 2 5.6 2h32.6v17.4h-32.7q-3.8 0-8.1-1.4-4.4-1.3-8.1-4.3-3.8-2.9-6.3-7.7-2.5-4.8-2.5-11.6v-25.5q0-3.8 1.3-8.2 1.4-4.3 4.3-8.1 3-3.7 7.8-6.2 4.8-2.5 11.6-2.5h32.7q3.8 0 8.2 1.3 4.3 1.3 8.1 4.3 3.7 3 6.2 7.7 2.5 4.8 2.5 11.7z"/>
				<path id="&lt;Compound Path&gt;" class="s1" d="m955.2 341.6h-8.1q-3.9 0-8.4-1.4-4.4-1.3-8.2-4.3-3.9-3.1-6.4-7.9-2.5-4.9-2.5-11.9v-81.9h18.2v81.9q0 3.3 2 5.3 2.1 2 5.3 2h8.1z"/>
			</g>
			<g id="&lt;Group&gt;">
				<g id="&lt;Group&gt;">
					<g id="&lt;Group&gt;">
						<g id="&lt;Group&gt;">
							<path id="&lt;Compound Path&gt;" class="s2" d="m87 385.8q3.1 3.3 3.1 9.2v16.9h-3.4v-16.7q0-4.6-2.2-7.1-2.1-2.5-6.2-2.5-2.6 0-4.7 1.3-2.1 1.3-3.3 3.6-1.2 2.3-1.2 5.1v16.3h-3.4v-16.7q0-4.6-2.2-7.1-2.1-2.5-6.2-2.5-2.6 0-4.7 1.3-2.2 1.3-3.3 3.6-1.2 2.3-1.2 5.1v16.3h-3.3v-29h3l0.1 4.9q1.6-2.5 4-3.9 2.5-1.4 5.5-1.4 3.8 0 6.5 1.7 2.6 1.8 3.8 4.9 1.6-3.1 4.4-4.9 2.8-1.7 6.3-1.7 5.4 0 8.6 3.3z"/>
							<path id="&lt;Compound Path&gt;" fill-rule="evenodd" class="s2" d="m110.3 410.6q-3.4-2-5.3-5.4-1.9-3.5-1.9-7.8 0-4.3 1.9-7.7 1.9-3.5 5.3-5.4 3.4-2 7.8-2 4.3 0 7.7 2 3.4 2 5.3 5.4 1.9 3.4 1.9 7.7 0 4.3-1.9 7.7-1.9 3.5-5.3 5.4-3.4 2-7.7 2-4.4 0-7.8-1.9zm13.7-2.8q2.7-1.6 4.2-4.3 1.5-2.7 1.5-6.1 0-3.3-1.5-6.1-1.5-2.7-4.2-4.3-2.6-1.5-5.9-1.5-3.4 0-6.1 1.5-2.6 1.6-4.1 4.3-1.5 2.8-1.5 6.1 0 3.4 1.5 6.1 1.5 2.7 4.1 4.3 2.7 1.5 6.1 1.5 3.3 0 5.9-1.5z"/>
							<path id="&lt;Compound Path&gt;" fill-rule="evenodd" class="s2" d="m174.2 370.8v41.1h-3.1v-5.7q-1.7 2.9-4.9 4.6-3.2 1.6-7.2 1.6-4.2 0-7.5-1.9-3.3-1.9-5.1-5.3-1.9-3.4-1.9-7.8 0-4.4 1.9-7.8 1.8-3.4 5.1-5.3 3.3-1.9 7.5-1.9 3.8 0 7 1.6 3.1 1.5 4.8 4.4v-17.6zm-8.9 37q2.6-1.5 4.1-4.2 1.5-2.7 1.5-6.2 0-3.5-1.5-6.2-1.5-2.7-4.1-4.2-2.6-1.5-5.9-1.5-3.4 0-5.9 1.5-2.6 1.5-4.1 4.2-1.5 2.7-1.5 6.2 0 3.5 1.5 6.2 1.5 2.7 4.1 4.2 2.5 1.5 5.9 1.5 3.3 0 5.9-1.5z"/>
							<path id="&lt;Compound Path&gt;" fill-rule="evenodd" class="s2" d="m210.1 384.2q3.3 1.8 5.1 5 1.8 3.3 1.8 7.7 0 1.2-0.1 1.8h-25.8q0.4 4.9 3.5 7.8 3 2.9 8 2.9 3 0 5.8-1.2 2.9-1.2 4.3-3.1l2.3 2q-2 2.6-5.3 4-3.4 1.5-7.2 1.5-4.3 0-7.7-2-3.4-1.9-5.3-5.4-1.8-3.4-1.8-7.8 0-4.3 1.8-7.8 1.9-3.4 5.2-5.3 3.3-1.9 7.6-1.9 4.4 0 7.8 1.8zm-15.5 4q-3.1 2.8-3.5 7.6h22.6q-0.1-4.7-3.2-7.5-3.1-2.9-8.2-2.9-4.7 0-7.7 2.8z"/>
							<path id="&lt;Compound Path&gt;" fill-rule="evenodd" class="s2" d="m233.3 370.8v41.1h-3.3v-41.1z"/>
							<path id="&lt;Compound Path&gt;" fill-rule="evenodd" class="s2" d="m668.3 382.9v29h-3.1v-5.7q-1.7 2.8-4.9 4.5-3.2 1.7-7.2 1.7-4.2 0-7.5-1.9-3.3-1.9-5.1-5.3-1.8-3.4-1.8-7.8 0-4.3 1.8-7.8 1.8-3.4 5.1-5.3 3.3-1.9 7.5-1.9 4 0 7.2 1.7 3.2 1.7 4.9 4.6v-5.8zm-8.9 24.9q2.6-1.5 4.1-4.2 1.4-2.7 1.4-6.2 0-3.5-1.4-6.2-1.5-2.7-4.1-4.2-2.6-1.5-6-1.5-3.3 0-5.9 1.5-2.6 1.5-4 4.2-1.5 2.7-1.5 6.2 0 3.5 1.5 6.2 1.4 2.7 4 4.2 2.6 1.5 5.9 1.5 3.4 0 6-1.5z"/>
							<path id="&lt;Compound Path&gt;" class="s2" d="m709.4 382.9v29h-3l-0.1-5.2q-1.7 2.6-4.5 4.1-2.9 1.5-6.3 1.5-5.7 0-8.9-3.4-3.3-3.4-3.3-9.4v-16.6h3.4v16.4q0 4.7 2.3 7.3 2.4 2.6 6.8 2.6 3 0 5.3-1.3 2.4-1.4 3.7-3.8 1.3-2.3 1.3-5.3v-15.9z"/>
							<path id="&lt;Compound Path&gt;" class="s2" d="m742.5 410.9q-3.1 1.5-5.9 1.5-4.5 0-6.4-2.3-1.9-2.4-1.9-7.2v-17h-6.1v-3h6.1v-8.3l3.3-0.4v8.7h9.6v3h-9.6v17q0 3.2 1.1 4.8 1.1 1.7 4 1.7 1 0 2.3-0.4 1.3-0.3 2.4-0.9z"/>
							<path id="&lt;Compound Path&gt;" fill-rule="evenodd" class="s2" d="m759.2 410.6q-3.4-2-5.3-5.4-1.9-3.5-1.9-7.8 0-4.3 1.9-7.7 1.9-3.5 5.3-5.4 3.4-2 7.8-2 4.3 0 7.7 2 3.4 2 5.3 5.4 1.9 3.4 1.9 7.7 0 4.3-1.9 7.7-1.9 3.5-5.3 5.4-3.4 2-7.7 2-4.4 0-7.8-1.9zm13.7-2.8q2.7-1.6 4.2-4.3 1.5-2.7 1.5-6.1 0-3.3-1.5-6.1-1.5-2.7-4.2-4.3-2.6-1.5-5.9-1.5-3.4 0-6.1 1.5-2.6 1.6-4.1 4.3-1.5 2.8-1.5 6.1 0 3.4 1.5 6.1 1.5 2.7 4.1 4.3 2.7 1.5 6.1 1.5 3.3 0 5.9-1.5z"/>
							<path id="&lt;Compound Path&gt;" class="s2" d="m837.6 385.8q3.1 3.3 3.1 9.2v16.9h-3.4v-16.7q0-4.6-2.1-7.1-2.2-2.5-6.3-2.5-2.6 0-4.7 1.3-2.1 1.3-3.3 3.6-1.2 2.3-1.2 5.1v16.3h-3.4v-16.7q0-4.6-2.2-7.1-2.1-2.5-6.2-2.5-2.6 0-4.7 1.3-2.1 1.3-3.3 3.6-1.2 2.3-1.2 5.1v16.3h-3.3v-29h3l0.1 4.9q1.6-2.5 4-3.9 2.5-1.4 5.5-1.4 3.8 0 6.5 1.7 2.6 1.8 3.8 4.9 1.6-3.1 4.4-4.9 2.8-1.7 6.3-1.7 5.4 0 8.6 3.3z"/>
							<path id="&lt;Compound Path&gt;" fill-rule="evenodd" class="s2" d="m883.3 382.9v29h-3.1v-5.7q-1.7 2.8-4.9 4.5-3.2 1.7-7.1 1.7-4.2 0-7.5-1.9-3.3-1.9-5.1-5.3-1.9-3.4-1.9-7.8 0-4.3 1.9-7.8 1.8-3.4 5.1-5.3 3.3-1.9 7.5-1.9 4 0 7.2 1.7 3.1 1.7 4.8 4.6v-5.8zm-8.9 24.9q2.6-1.5 4.1-4.2 1.5-2.7 1.5-6.2 0-3.5-1.5-6.2-1.5-2.7-4.1-4.2-2.6-1.5-5.9-1.5-3.4 0-5.9 1.5-2.6 1.5-4.1 4.2-1.5 2.7-1.5 6.2 0 3.5 1.5 6.2 1.5 2.7 4.1 4.2 2.5 1.5 5.9 1.5 3.3 0 5.9-1.5z"/>
							<path id="&lt;Compound Path&gt;" class="s2" d="m916.4 410.9q-3.1 1.5-5.9 1.5-4.4 0-6.4-2.3-1.9-2.4-1.9-7.2v-17h-6.1v-3h6.1v-8.3l3.3-0.4v8.7h9.7v3h-9.7v17q0 3.2 1.1 4.8 1.1 1.7 4 1.7 1 0 2.3-0.4 1.3-0.3 2.4-0.9z"/>
							<path id="&lt;Compound Path&gt;" fill-rule="evenodd" class="s2" d="m948.3 384.2q3.3 1.8 5.1 5 1.8 3.3 1.8 7.7 0 1.2-0.1 1.8h-25.8q0.4 4.9 3.5 7.8 3.1 2.9 8 2.9 3 0 5.9-1.2 2.8-1.2 4.3-3.1l2.2 2q-2 2.6-5.3 4-3.3 1.5-7.2 1.5-4.3 0-7.7-2-3.4-1.9-5.2-5.4-1.9-3.4-1.9-7.8 0-4.3 1.8-7.8 1.9-3.4 5.2-5.3 3.3-1.9 7.6-1.9 4.5 0 7.8 1.8zm-15.5 4q-3 2.8-3.5 7.6h22.6q-0.1-4.7-3.2-7.5-3.1-2.9-8.1-2.9-4.8 0-7.8 2.8z"/>
						</g>
					</g>
					<path id="&lt;Compound Path&gt;" fill-rule="evenodd" class="s2" d="m276.1 362.7v57.4h-3.4v-57.4z"/>
					<path id="&lt;Compound Path&gt;" fill-rule="evenodd" class="s2" d="m600.8 362.7v57.4h-3.3v-57.4z"/>
				</g>
				<path id="&lt;Compound Path&gt;" fill-rule="evenodd" class="s2" d="m343 383v28.9h-3.1v-5.8q-1.7 2.9-4.9 4.6-3.2 1.7-7.1 1.7-4.2 0-7.5-1.9-3.2-1.9-5.1-5.3-1.8-3.4-1.8-7.8 0-4.3 1.8-7.7 1.9-3.4 5.1-5.3 3.3-1.9 7.5-1.9 4 0 7.2 1.7 3.1 1.7 4.8 4.6v-5.8zm-8.8 24.8q2.6-1.5 4-4.2 1.5-2.7 1.5-6.2 0-3.5-1.5-6.2-1.4-2.7-4-4.1-2.6-1.5-6-1.5-3.3 0-5.9 1.5-2.5 1.4-4 4.1-1.5 2.7-1.5 6.2 0 3.5 1.5 6.2 1.5 2.7 4 4.2 2.6 1.5 5.9 1.5 3.4 0 6-1.5z"/>
				<path id="&lt;Compound Path&gt;" class="s2" d="m381.5 386q3.2 3.4 3.2 9.4v16.5h-3.3v-16.3q0-4.8-2.4-7.4-2.4-2.5-6.8-2.5-3.1 0-5.5 1.3-2.4 1.4-3.7 3.7-1.3 2.4-1.3 5.3v15.9h-3.3v-28.9h3l0.1 5.2q1.7-2.6 4.6-4.1 2.9-1.5 6.4-1.5 5.7 0 9 3.4z"/>
				<path id="&lt;Compound Path&gt;" fill-rule="evenodd" class="s2" d="m427.3 383v28.9h-3.1v-5.8q-1.7 2.9-4.9 4.6-3.2 1.7-7.1 1.7-4.2 0-7.5-1.9-3.3-1.9-5.1-5.3-1.8-3.4-1.8-7.8 0-4.3 1.8-7.7 1.8-3.4 5.1-5.3 3.3-1.9 7.5-1.9 4 0 7.1 1.7 3.2 1.7 4.9 4.6v-5.8zm-8.9 24.8q2.6-1.5 4.1-4.2 1.4-2.7 1.4-6.2 0-3.5-1.4-6.2-1.5-2.7-4.1-4.1-2.6-1.5-5.9-1.5-3.3 0-5.9 1.5-2.6 1.4-4.1 4.1-1.4 2.7-1.4 6.2 0 3.5 1.4 6.2 1.5 2.7 4.1 4.2 2.6 1.5 5.9 1.5 3.3 0 5.9-1.5z"/>
				<path id="&lt;Compound Path&gt;" fill-rule="evenodd" class="s2" d="m446 371v40.9h-3.4v-40.9z"/>
				<path id="&lt;Compound Path&gt;" class="s2" d="m483 383h3.6l-18.6 42.8h-3.6l6.1-14.1-11.9-28.7h3.6l6.5 16 3.7 8.8 3.7-8.8z"/>
				<path id="&lt;Compound Path&gt;" class="s2" d="m501.5 411.1q-3.4-1.3-5.6-3.6l1.9-2.4q1.8 2 4.7 3.1 2.9 1.2 6.2 1.2 3.9 0 6.2-1.5 2.3-1.5 2.3-3.9 0-1.5-0.8-2.4-0.8-1-2.7-1.7-2-0.7-5.5-1.4-6.2-0.9-8.7-2.8-2.6-1.8-2.6-5.2 0-3.6 3.2-5.8 3.2-2.2 8.7-2.2 3.4 0 6 0.9 2.7 0.9 5.1 2.8l-1.7 2.3q-2.1-1.5-4.3-2.3-2.2-0.8-5-0.8-4.2 0-6.5 1.4-2.2 1.3-2.2 3.7 0 1.4 0.7 2.3 0.8 1 2.6 1.6 1.8 0.6 5.1 1.2 6.5 1.1 9.2 3 2.7 1.9 2.7 5.5 0 3.7-3.3 6-3.2 2.3-8.6 2.3-3.8 0-7.1-1.3z"/>
				<path id="&lt;Compound Path&gt;" fill-rule="evenodd" class="s2" d="m553.9 384.3q3.3 1.7 5.1 5 1.8 3.3 1.8 7.6 0 1.2-0.1 1.8h-25.7q0.4 4.9 3.5 7.8 3.1 2.9 8 2.9 3 0 5.8-1.2 2.8-1.2 4.3-3.1l2.2 2q-2 2.6-5.3 4-3.3 1.4-7.1 1.4-4.3 0-7.7-1.9-3.3-1.9-5.2-5.4-1.9-3.4-1.9-7.8 0-4.3 1.9-7.7 1.8-3.4 5.1-5.3 3.3-1.9 7.6-1.9 4.4 0 7.7 1.8zm-15.4 4q-3 2.8-3.5 7.5h22.5q-0.1-4.6-3.2-7.5-3.1-2.8-8.1-2.8-4.7 0-7.7 2.8z"/>
			</g>
		</g>
	</g>
</svg>