<?xml version="1.0" encoding="UTF-8" standalone="no"?> <svg xmlns="http://www.w3.org/2000/svg" xmlns:xlink="http://www.w3.org/1999/xlink" xmlns:serif="http://www.serif.com/" width="100%" height="100%" viewBox="0 0 1536 260" version="1.1" xml:space="preserve" style="fill-rule:evenodd;clip-rule:evenodd;stroke-linejoin:round;stroke-miterlimit:2;"> <g transform="matrix(1,0,0,1,-139.826,-170.437)"> <g transform="matrix(1,0,0,1,9,0)"> <g id="crossmodel-gold-blue" serif:id="crossmodel gold/blue" transform="matrix(1.60852,0,0,1.60852,-549.327,-182.555)"> <g transform="matrix(4.16667,0,0,4.16667,539.445,305.971)"> <path d="M0,-2.383L-9.687,-2.383C-10.831,-2.374 -11.955,-2.729 -12.753,-3.546C-13.781,-4.603 -14.357,-6.016 -14.348,-7.486C-14.338,-10.417 -14.328,-15.126 -14.328,-15.126C-14.328,-16.413 -15.376,-17.461 -16.664,-17.461L-25.649,-17.461C-26.936,-17.461 -27.984,-16.413 -27.984,-15.126L-27.984,-5.564C-27.984,-4.276 -26.936,-3.229 -25.649,-3.229L-25.514,-3.229C-25.514,-3.229 -20.805,-3.238 -17.874,-3.248C-16.846,-3.248 -15.856,-2.969 -14.992,-2.46L-14.982,-2.451C-14.607,-2.229 -14.251,-1.96 -13.934,-1.653C-13.117,-0.845 -12.762,0.269 -12.772,1.413L-12.772,4.699C-12.753,5.574 -12.762,6.458 -12.772,7.333C-12.781,8.87 -12.791,10.408 -12.8,11.945C-12.8,13.675 -11.397,15.078 -9.668,15.078L0,15.078C1.73,15.078 3.133,13.675 3.133,11.945L3.133,0.749C3.133,-0.98 1.73,-2.383 0,-2.383" style="fill:rgb(198,154,44);fill-rule:nonzero;"></path> </g> <g transform="matrix(4.16667,0,0,4.16667,550.686,228.773)"> <path d="M0,10.706C0,11.193 -0.393,11.586 -0.879,11.586L-11.601,11.586C-12.083,11.586 -12.481,11.193 -12.481,10.706L-12.481,0C-12.481,-0.487 -12.083,-0.88 -11.601,-0.88L-0.879,-0.88C-0.393,-0.88 0,-0.487 0,0L0,10.706Z" style="fill:rgb(29,60,81);fill-rule:nonzero;"></path> </g> <g transform="matrix(4.16667,0,0,4.16667,685.443,225.556)"> <path d="M0,20.204L-13.215,20.204C-13.554,20.204 -13.917,20.164 -14.307,20.084C-14.697,20.004 -15.082,19.88 -15.462,19.711C-15.843,19.542 -16.207,19.323 -16.555,19.056C-16.902,18.788 -17.21,18.464 -17.477,18.084C-17.745,17.703 -17.959,17.262 -18.118,16.759C-18.278,16.257 -18.358,15.691 -18.358,15.061L-18.358,5.143C-18.358,4.805 -18.318,4.441 -18.238,4.051C-18.158,3.661 -18.034,3.276 -17.865,2.896C-17.696,2.515 -17.475,2.152 -17.203,1.803C-16.93,1.457 -16.604,1.149 -16.223,0.881C-15.843,0.614 -15.404,0.4 -14.906,0.24C-14.409,0.08 -13.845,0 -13.215,0L0,0L0,3.663L-13.215,3.663C-13.695,3.663 -14.061,3.79 -14.315,4.043C-14.568,4.298 -14.695,4.673 -14.695,5.171L-14.695,15.061C-14.695,15.531 -14.566,15.895 -14.307,16.154C-14.049,16.412 -13.685,16.541 -13.215,16.541L0,16.541L0,20.204Z" style="fill:rgb(198,154,44);fill-rule:nonzero;"></path> </g> <g transform="matrix(4.16667,0,0,4.16667,753.366,294.477)"> <path d="M0,-7.904L-8.242,-7.904C-8.74,-7.904 -9.116,-7.779 -9.37,-7.531C-9.623,-7.282 -9.75,-6.918 -9.75,-6.438L-9.75,3.663L-13.413,3.663L-13.413,-6.438C-13.413,-7.068 -13.333,-7.631 -13.174,-8.129C-13.014,-8.627 -12.8,-9.067 -12.532,-9.447C-12.265,-9.827 -11.957,-10.151 -11.61,-10.419C-11.262,-10.686 -10.898,-10.905 -10.518,-11.074C-10.137,-11.243 -9.752,-11.368 -9.363,-11.447C-8.972,-11.527 -8.609,-11.567 -8.27,-11.567L0,-11.567L0,-7.904Z" style="fill:rgb(198,154,44);fill-rule:nonzero;"></path> </g> <g transform="matrix(4.16667,0,0,4.16667,816.941,288.257)"> <path d="M0,-4.918C0,-5.425 -0.127,-5.801 -0.38,-6.045C-0.634,-6.289 -1,-6.411 -1.479,-6.411L-8.059,-6.411C-8.547,-6.411 -8.919,-6.286 -9.172,-6.038C-9.425,-5.789 -9.552,-5.425 -9.552,-4.946L-9.552,0.013C-9.552,0.493 -9.425,0.858 -9.172,1.112C-8.919,1.366 -8.547,1.493 -8.059,1.493L-1.479,1.493C-0.982,1.493 -0.611,1.366 -0.366,1.112C-0.122,0.858 0,0.493 0,0.013L0,-4.918ZM3.663,0.013C3.663,0.643 3.584,1.209 3.424,1.711C3.264,2.213 3.052,2.655 2.789,3.036C2.526,3.416 2.221,3.74 1.874,4.008C1.526,4.275 1.163,4.493 0.781,4.662C0.401,4.832 0.016,4.956 -0.373,5.036C-0.763,5.116 -1.132,5.156 -1.479,5.156L-8.087,5.156C-8.594,5.156 -9.149,5.066 -9.75,4.888C-10.351,4.71 -10.908,4.416 -11.419,4.008C-11.931,3.599 -12.358,3.068 -12.701,2.415C-13.044,1.763 -13.215,0.962 -13.215,0.013L-13.215,-4.946C-13.215,-5.885 -13.044,-6.681 -12.701,-7.334C-12.358,-7.987 -11.931,-8.517 -11.419,-8.926C-10.908,-9.335 -10.351,-9.628 -9.75,-9.806C-9.149,-9.985 -8.594,-10.074 -8.087,-10.074L-1.479,-10.074C-0.54,-10.074 0.258,-9.906 0.916,-9.567C1.573,-9.229 2.104,-8.804 2.508,-8.292C2.911,-7.78 3.205,-7.224 3.388,-6.623C3.572,-6.021 3.663,-5.462 3.663,-4.946L3.663,0.013Z" style="fill:rgb(198,154,44);fill-rule:nonzero;"></path> </g> <g transform="matrix(4.16667,0,0,4.16667,906.52,267.708)"> <path d="M0,4.945C0,5.575 -0.08,6.141 -0.239,6.643C-0.399,7.145 -0.611,7.586 -0.873,7.967C-1.136,8.348 -1.442,8.672 -1.789,8.94C-2.137,9.207 -2.501,9.425 -2.881,9.594C-3.261,9.764 -3.646,9.888 -4.036,9.968C-4.426,10.048 -4.795,10.088 -5.143,10.088L-15.06,10.088L-15.06,6.424L-5.17,6.424C-4.673,6.424 -4.297,6.298 -4.044,6.044C-3.789,5.79 -3.663,5.424 -3.663,4.945C-3.71,3.968 -4.203,3.48 -5.143,3.48L-10.82,3.48C-11.628,3.48 -12.314,3.339 -12.877,3.057C-13.441,2.775 -13.899,2.423 -14.251,2.001C-14.603,1.578 -14.857,1.122 -15.012,0.634C-15.167,0.146 -15.244,-0.31 -15.244,-0.733C-15.244,-1.55 -15.098,-2.238 -14.807,-2.797C-14.516,-3.355 -14.15,-3.809 -13.708,-4.156C-13.267,-4.504 -12.788,-4.755 -12.271,-4.91C-11.755,-5.065 -11.271,-5.143 -10.82,-5.143L-1.817,-5.143L-1.817,-1.479L-10.792,-1.479C-10.98,-1.479 -11.128,-1.459 -11.236,-1.416C-11.344,-1.374 -11.424,-1.318 -11.475,-1.247C-11.527,-1.177 -11.557,-1.101 -11.567,-1.022C-11.576,-0.941 -11.581,-0.864 -11.581,-0.789C-11.572,-0.638 -11.543,-0.521 -11.497,-0.437C-11.45,-0.352 -11.391,-0.291 -11.32,-0.254C-11.25,-0.216 -11.17,-0.195 -11.081,-0.191C-10.991,-0.186 -10.905,-0.184 -10.82,-0.184L-5.143,-0.184C-4.203,-0.184 -3.405,-0.014 -2.747,0.324C-2.09,0.662 -1.559,1.087 -1.155,1.599C-0.752,2.111 -0.458,2.667 -0.274,3.269C-0.091,3.87 0,4.429 0,4.945" style="fill:rgb(198,154,44);fill-rule:nonzero;"></path> </g> <g transform="matrix(4.16667,0,0,4.16667,978.552,267.708)"> <path d="M0,4.945C0,5.575 -0.08,6.141 -0.239,6.643C-0.399,7.145 -0.611,7.586 -0.873,7.967C-1.136,8.348 -1.442,8.672 -1.789,8.94C-2.137,9.207 -2.501,9.425 -2.881,9.594C-3.261,9.764 -3.646,9.888 -4.037,9.968C-4.426,10.048 -4.795,10.088 -5.143,10.088L-15.061,10.088L-15.061,6.424L-5.171,6.424C-4.673,6.424 -4.297,6.298 -4.044,6.044C-3.789,5.79 -3.663,5.424 -3.663,4.945C-3.71,3.968 -4.203,3.48 -5.143,3.48L-10.82,3.48C-11.628,3.48 -12.314,3.339 -12.877,3.057C-13.441,2.775 -13.899,2.423 -14.251,2.001C-14.603,1.578 -14.857,1.122 -15.012,0.634C-15.167,0.146 -15.244,-0.31 -15.244,-0.733C-15.244,-1.55 -15.098,-2.238 -14.807,-2.797C-14.516,-3.355 -14.15,-3.809 -13.708,-4.156C-13.267,-4.504 -12.788,-4.755 -12.271,-4.91C-11.755,-5.065 -11.271,-5.143 -10.82,-5.143L-1.817,-5.143L-1.817,-1.479L-10.792,-1.479C-10.98,-1.479 -11.128,-1.459 -11.236,-1.416C-11.344,-1.374 -11.424,-1.318 -11.475,-1.247C-11.527,-1.177 -11.557,-1.101 -11.567,-1.022C-11.576,-0.941 -11.581,-0.864 -11.581,-0.789C-11.572,-0.638 -11.543,-0.521 -11.497,-0.437C-11.45,-0.352 -11.391,-0.291 -11.32,-0.254C-11.25,-0.216 -11.17,-0.195 -11.081,-0.191C-10.991,-0.186 -10.905,-0.184 -10.82,-0.184L-5.143,-0.184C-4.203,-0.184 -3.405,-0.014 -2.747,0.324C-2.09,0.662 -1.559,1.087 -1.155,1.599C-0.752,2.111 -0.458,2.667 -0.274,3.269C-0.091,3.87 0,4.429 0,4.945" style="fill:rgb(198,154,44);fill-rule:nonzero;"></path> </g> <g transform="matrix(4.16667,0,0,4.16667,1088.92,225.365)"> <path d="M0,20.25L-3.692,20.25L-3.692,8.218L-10.187,19.644C-10.347,19.935 -10.569,20.156 -10.856,20.307C-11.143,20.457 -11.45,20.532 -11.779,20.532C-12.098,20.532 -12.396,20.457 -12.673,20.307C-12.95,20.156 -13.169,19.935 -13.328,19.644L-19.851,8.218L-19.851,20.25L-23.515,20.25L-23.515,1.61C-23.515,1.188 -23.39,0.812 -23.141,0.483C-22.893,0.154 -22.566,-0.066 -22.162,-0.179C-21.965,-0.226 -21.768,-0.243 -21.57,-0.228C-21.374,-0.214 -21.183,-0.172 -21,-0.102C-20.817,-0.031 -20.651,0.068 -20.5,0.194C-20.35,0.321 -20.223,0.474 -20.119,0.652L-11.779,15.15L-3.438,0.652C-3.222,0.295 -2.924,0.042 -2.543,-0.109C-2.163,-0.259 -1.766,-0.282 -1.353,-0.179C-0.958,-0.066 -0.634,0.154 -0.381,0.483C-0.127,0.812 0,1.188 0,1.61L0,20.25Z" style="fill:rgb(198,154,44);fill-rule:nonzero;"></path> </g> <g transform="matrix(4.16667,0,0,4.16667,1158.3,288.257)"> <path d="M0,-4.918C0,-5.425 -0.127,-5.801 -0.38,-6.045C-0.634,-6.289 -1,-6.411 -1.479,-6.411L-8.059,-6.411C-8.547,-6.411 -8.919,-6.286 -9.172,-6.038C-9.425,-5.789 -9.552,-5.425 -9.552,-4.946L-9.552,0.013C-9.552,0.493 -9.425,0.858 -9.172,1.112C-8.919,1.366 -8.547,1.493 -8.059,1.493L-1.479,1.493C-0.982,1.493 -0.61,1.366 -0.366,1.112C-0.122,0.858 0,0.493 0,0.013L0,-4.918ZM3.663,0.013C3.663,0.643 3.584,1.209 3.424,1.711C3.264,2.213 3.053,2.655 2.79,3.036C2.526,3.416 2.221,3.74 1.874,4.008C1.526,4.275 1.163,4.493 0.782,4.662C0.401,4.832 0.016,4.956 -0.373,5.036C-0.763,5.116 -1.132,5.156 -1.479,5.156L-8.087,5.156C-8.594,5.156 -9.149,5.066 -9.75,4.888C-10.351,4.71 -10.907,4.416 -11.419,4.008C-11.931,3.599 -12.358,3.068 -12.701,2.415C-13.044,1.763 -13.215,0.962 -13.215,0.013L-13.215,-4.946C-13.215,-5.885 -13.044,-6.681 -12.701,-7.334C-12.358,-7.987 -11.931,-8.517 -11.419,-8.926C-10.907,-9.335 -10.351,-9.628 -9.75,-9.806C-9.149,-9.985 -8.594,-10.074 -8.087,-10.074L-1.479,-10.074C-0.54,-10.074 0.258,-9.906 0.916,-9.567C1.573,-9.229 2.104,-8.804 2.508,-8.292C2.911,-7.78 3.205,-7.224 3.388,-6.623C3.572,-6.021 3.663,-5.462 3.663,-4.946L3.663,0.013Z" style="fill:rgb(198,154,44);fill-rule:nonzero;"></path> </g> <g transform="matrix(4.16667,0,0,4.16667,1256.16,240.883)"> <path d="M0,11.383C0,12.013 -0.08,12.579 -0.24,13.081C-0.399,13.583 -0.611,14.024 -0.874,14.405C-1.137,14.786 -1.442,15.11 -1.789,15.378C-2.137,15.645 -2.501,15.863 -2.881,16.032C-3.262,16.202 -3.647,16.326 -4.036,16.406C-4.427,16.486 -4.795,16.526 -5.143,16.526L-11.751,16.526C-12.38,16.526 -12.943,16.446 -13.441,16.286C-13.939,16.126 -14.378,15.913 -14.758,15.645C-15.139,15.378 -15.463,15.07 -15.731,14.722C-15.998,14.375 -16.216,14.01 -16.386,13.63C-16.555,13.25 -16.679,12.865 -16.759,12.475C-16.839,12.085 -16.878,11.722 -16.878,11.383L-16.878,6.424C-16.878,5.485 -16.708,4.688 -16.364,4.036C-16.021,3.383 -15.594,2.852 -15.082,2.443C-14.571,2.035 -14.014,1.741 -13.413,1.564C-12.812,1.385 -12.257,1.295 -11.751,1.295L-5.143,1.295L-5.143,4.959L-11.722,4.959C-12.21,4.959 -12.582,5.084 -12.835,5.332C-13.089,5.581 -13.216,5.945 -13.216,6.424L-13.216,11.355C-13.216,11.853 -13.091,12.228 -12.842,12.482C-12.594,12.736 -12.229,12.862 -11.751,12.862L-5.143,12.862C-4.645,12.862 -4.274,12.736 -4.029,12.482C-3.785,12.228 -3.663,11.862 -3.663,11.383L-3.663,-5.143L0,-5.143L0,11.383Z" style="fill:rgb(198,154,44);fill-rule:nonzero;"></path> </g> <g transform="matrix(4.16667,0,0,4.16667,1339,288.723)"> <path d="M0,-5.142C0,-4.635 -0.089,-4.087 -0.268,-3.501C-0.447,-2.914 -0.736,-2.369 -1.135,-1.867C-1.534,-1.364 -2.055,-0.944 -2.699,-0.606C-3.342,-0.267 -4.124,-0.099 -5.044,-0.099L-11.652,-0.099L-11.652,-3.579L-5.044,-3.579C-4.547,-3.579 -4.161,-3.731 -3.889,-4.037C-3.616,-4.342 -3.48,-4.72 -3.48,-5.171C-3.48,-5.649 -3.633,-6.025 -3.938,-6.298C-4.244,-6.57 -4.612,-6.706 -5.044,-6.706L-11.652,-6.706C-12.15,-6.706 -12.535,-6.554 -12.807,-6.248C-13.08,-5.943 -13.215,-5.565 -13.215,-5.114L-13.215,0C-13.215,0.488 -13.063,0.869 -12.758,1.142C-12.453,1.414 -12.074,1.55 -11.624,1.55L-5.044,1.55L-5.044,5.044L-11.652,5.044C-12.159,5.044 -12.707,4.955 -13.294,4.776C-13.88,4.598 -14.426,4.309 -14.927,3.91C-15.43,3.511 -15.851,2.989 -16.188,2.346C-16.527,1.703 -16.696,0.921 -16.696,0L-16.696,-5.142C-16.696,-5.649 -16.606,-6.196 -16.428,-6.783C-16.25,-7.37 -15.961,-7.915 -15.562,-8.418C-15.162,-8.92 -14.641,-9.341 -13.998,-9.679C-13.354,-10.017 -12.573,-10.186 -11.652,-10.186L-5.044,-10.186C-4.537,-10.186 -3.99,-10.097 -3.403,-9.918C-2.816,-9.74 -2.271,-9.451 -1.768,-9.052C-1.266,-8.653 -0.846,-8.132 -0.507,-7.488C-0.17,-6.845 0,-6.062 0,-5.142" style="fill:rgb(198,154,44);fill-rule:nonzero;"></path> </g> <g transform="matrix(4.16667,0,0,4.16667,1377.15,219.452)"> <path d="M0,21.669L-1.634,21.669C-2.161,21.669 -2.722,21.58 -3.318,21.401C-3.915,21.223 -4.471,20.929 -4.988,20.521C-5.504,20.112 -5.932,19.582 -6.27,18.929C-6.608,18.276 -6.777,17.476 -6.777,16.526L-6.777,0L-3.114,0L-3.114,16.526C-3.114,16.977 -2.973,17.337 -2.691,17.605C-2.41,17.872 -2.057,18.006 -1.634,18.006L0,18.006L0,21.669Z" style="fill:rgb(198,154,44);fill-rule:nonzero;"></path> </g> <g transform="matrix(4.16667,0,0,4.16667,646.805,366.094)"> <path d="M0,-4.598C0.418,-4.151 0.628,-3.534 0.628,-2.744L0.628,0.669L-0.048,0.669L-0.048,-2.696C-0.048,-3.32 -0.193,-3.8 -0.486,-4.136C-0.778,-4.472 -1.197,-4.64 -1.742,-4.64C-2.097,-4.64 -2.417,-4.552 -2.702,-4.379C-2.986,-4.205 -3.209,-3.964 -3.371,-3.656C-3.533,-3.348 -3.614,-3 -3.614,-2.613L-3.614,0.669L-4.29,0.669L-4.29,-2.696C-4.29,-3.32 -4.436,-3.8 -4.728,-4.136C-5.02,-4.472 -5.439,-4.64 -5.984,-4.64C-6.339,-4.64 -6.659,-4.552 -6.944,-4.379C-7.228,-4.205 -7.449,-3.964 -7.607,-3.656C-7.765,-3.348 -7.844,-3 -7.844,-2.613L-7.844,0.669L-8.52,0.669L-8.52,-5.184L-7.903,-5.184L-7.892,-4.201C-7.678,-4.541 -7.406,-4.803 -7.074,-4.989C-6.742,-5.174 -6.371,-5.267 -5.961,-5.267C-5.454,-5.267 -5.022,-5.151 -4.663,-4.918C-4.303,-4.685 -4.045,-4.355 -3.887,-3.929C-3.673,-4.355 -3.377,-4.685 -2.998,-4.918C-2.619,-5.151 -2.196,-5.267 -1.73,-5.267C-0.996,-5.267 -0.419,-5.044 0,-4.598" style="fill:rgb(29,60,81);fill-rule:nonzero;"></path> </g> <g transform="matrix(4.16667,0,0,4.16667,678.008,347.975)"> <path d="M0,4.182C0.355,3.973 0.634,3.685 0.835,3.317C1.037,2.95 1.138,2.541 1.138,2.091C1.138,1.64 1.037,1.232 0.835,0.864C0.634,0.497 0.355,0.208 0,0C-0.355,-0.21 -0.758,-0.314 -1.208,-0.314C-1.659,-0.314 -2.064,-0.21 -2.423,0C-2.783,0.208 -3.061,0.497 -3.259,0.864C-3.456,1.232 -3.555,1.64 -3.555,2.091C-3.555,2.541 -3.456,2.95 -3.259,3.317C-3.061,3.685 -2.783,3.973 -2.423,4.182C-2.064,4.391 -1.659,4.496 -1.208,4.496C-0.758,4.496 -0.355,4.391 0,4.182M-2.773,4.745C-3.231,4.484 -3.588,4.121 -3.845,3.655C-4.101,3.188 -4.23,2.667 -4.23,2.091C-4.23,1.514 -4.101,0.993 -3.845,0.526C-3.588,0.06 -3.231,-0.303 -2.773,-0.563C-2.315,-0.825 -1.793,-0.954 -1.208,-0.954C-0.624,-0.954 -0.102,-0.823 0.355,-0.557C0.813,-0.293 1.172,0.07 1.428,0.532C1.685,0.995 1.813,1.514 1.813,2.091C1.813,2.667 1.685,3.187 1.428,3.649C1.172,4.111 0.813,4.475 0.355,4.739C-0.102,5.004 -0.624,5.136 -1.208,5.136C-1.793,5.136 -2.315,5.005 -2.773,4.745" style="fill:rgb(29,60,81);fill-rule:nonzero;"></path> </g> <g transform="matrix(4.16667,0,0,4.16667,712.693,338.196)"> <path d="M0,6.541C0.351,6.34 0.626,6.057 0.823,5.694C1.021,5.331 1.12,4.912 1.12,4.438C1.12,3.964 1.021,3.545 0.823,3.182C0.626,2.818 0.351,2.536 0,2.334C-0.352,2.133 -0.753,2.033 -1.202,2.033C-1.653,2.033 -2.052,2.133 -2.399,2.334C-2.747,2.536 -3.02,2.818 -3.217,3.182C-3.415,3.545 -3.513,3.964 -3.513,4.438C-3.513,4.912 -3.415,5.331 -3.217,5.694C-3.02,6.057 -2.747,6.34 -2.399,6.541C-2.052,6.743 -1.653,6.843 -1.202,6.843C-0.753,6.843 -0.352,6.743 0,6.541M1.795,-0.93L1.795,7.364L1.167,7.364L1.167,6.203C0.946,6.599 0.62,6.909 0.189,7.133C-0.241,7.358 -0.728,7.471 -1.274,7.471C-1.835,7.471 -2.336,7.343 -2.779,7.086C-3.221,6.83 -3.567,6.472 -3.815,6.014C-4.064,5.556 -4.189,5.03 -4.189,4.438C-4.189,3.845 -4.064,3.32 -3.815,2.862C-3.567,2.403 -3.221,2.046 -2.779,1.79C-2.336,1.533 -1.835,1.404 -1.274,1.404C-0.753,1.404 -0.283,1.511 0.136,1.724C0.555,1.937 0.883,2.233 1.12,2.613L1.12,-0.93L1.795,-0.93Z" style="fill:rgb(29,60,81);fill-rule:nonzero;"></path> </g> <g transform="matrix(4.16667,0,0,4.16667,737.329,364.514)"> <path d="M0,-3.733C-0.407,-3.358 -0.642,-2.851 -0.705,-2.211L3.856,-2.211C3.849,-2.834 3.636,-3.338 3.217,-3.721C2.798,-4.104 2.249,-4.296 1.57,-4.296C0.93,-4.296 0.406,-4.108 0,-3.733M3.128,-4.551C3.574,-4.31 3.918,-3.968 4.159,-3.526C4.4,-3.084 4.521,-2.57 4.521,-1.985C4.521,-1.82 4.516,-1.697 4.508,-1.618L-0.705,-1.618C-0.65,-0.954 -0.415,-0.429 0,-0.042C0.414,0.345 0.954,0.539 1.617,0.539C2.028,0.539 2.423,0.46 2.802,0.302C3.182,0.144 3.47,-0.066 3.667,-0.326L4.13,0.077C3.852,0.424 3.492,0.695 3.045,0.888C2.599,1.082 2.119,1.179 1.605,1.179C1.021,1.179 0.501,1.048 0.048,0.788C-0.407,0.527 -0.76,0.165 -1.013,-0.297C-1.266,-0.759 -1.392,-1.286 -1.392,-1.879C-1.392,-2.463 -1.268,-2.987 -1.019,-3.449C-0.771,-3.911 -0.423,-4.27 0.023,-4.527C0.47,-4.784 0.982,-4.912 1.558,-4.912C2.158,-4.912 2.682,-4.792 3.128,-4.551" style="fill:rgb(29,60,81);fill-rule:nonzero;"></path> </g> <g transform="matrix(4.16667,0,0,4.16667,-3267.11,-5408.4)"> <rect x="968.216" y="1378.25" width="0.675" height="8.295" style="fill:rgb(29,60,81);"></rect> </g> <g transform="matrix(4.16667,0,0,4.16667,1128.34,347.921)"> <path d="M0,4.207C0.351,4.006 0.626,3.723 0.823,3.36C1.021,2.997 1.12,2.578 1.12,2.104C1.12,1.63 1.021,1.211 0.823,0.848C0.626,0.484 0.351,0.202 0,-0C-0.351,-0.201 -0.752,-0.301 -1.202,-0.301C-1.653,-0.301 -2.052,-0.201 -2.399,-0C-2.747,0.202 -3.02,0.484 -3.217,0.848C-3.415,1.211 -3.513,1.63 -3.513,2.104C-3.513,2.578 -3.415,2.997 -3.217,3.36C-3.02,3.723 -2.747,4.006 -2.399,4.207C-2.052,4.409 -1.653,4.509 -1.202,4.509C-0.752,4.509 -0.351,4.409 0,4.207M1.795,-0.823L1.795,5.03L1.167,5.03L1.167,3.869C0.938,4.257 0.609,4.564 0.178,4.793C-0.253,5.022 -0.732,5.137 -1.262,5.137C-1.831,5.137 -2.336,5.009 -2.779,4.752C-3.221,4.496 -3.567,4.136 -3.815,3.674C-4.064,3.212 -4.188,2.688 -4.188,2.104C-4.188,1.519 -4.064,0.996 -3.815,0.533C-3.567,0.071 -3.221,-0.288 -2.779,-0.544C-2.336,-0.801 -1.831,-0.93 -1.262,-0.93C-0.725,-0.93 -0.243,-0.815 0.184,-0.586C0.61,-0.357 0.938,-0.045 1.167,0.35L1.167,-0.823L1.795,-0.823Z" style="fill:rgb(29,60,81);fill-rule:nonzero;"></path> </g> <g transform="matrix(4.16667,0,0,4.16667,1170.43,369.226)"> <path d="M0,-5.936L0,-0.083L-0.616,-0.083L-0.628,-1.137C-0.857,-0.782 -1.163,-0.503 -1.546,-0.302C-1.929,-0.101 -2.354,0 -2.82,0C-3.579,0 -4.177,-0.231 -4.615,-0.693C-5.053,-1.155 -5.273,-1.789 -5.273,-2.595L-5.273,-5.936L-4.598,-5.936L-4.598,-2.631C-4.598,-1.991 -4.438,-1.497 -4.118,-1.149C-3.798,-0.802 -3.346,-0.628 -2.761,-0.628C-2.358,-0.628 -1.996,-0.719 -1.677,-0.9C-1.357,-1.082 -1.11,-1.332 -0.936,-1.653C-0.763,-1.973 -0.675,-2.33 -0.675,-2.725L-0.675,-5.936L0,-5.936Z" style="fill:rgb(29,60,81);fill-rule:nonzero;"></path> </g> <g transform="matrix(4.16667,0,0,4.16667,1198.28,338.468)"> <path d="M0,7.098C-0.427,7.303 -0.829,7.406 -1.208,7.406C-1.801,7.406 -2.228,7.246 -2.488,6.926C-2.749,6.606 -2.879,6.127 -2.879,5.487L-2.879,2.05L-4.112,2.05L-4.112,1.446L-2.879,1.446L-2.879,-0.237L-2.216,-0.308L-2.216,1.446L-0.26,1.446L-0.26,2.05L-2.216,2.05L-2.216,5.487C-2.216,5.913 -2.141,6.237 -1.991,6.458C-1.841,6.679 -1.568,6.79 -1.173,6.79C-1.039,6.79 -0.885,6.766 -0.711,6.719C-0.538,6.671 -0.376,6.608 -0.225,6.529L0,7.098Z" style="fill:rgb(29,60,81);fill-rule:nonzero;"></path> </g> <g transform="matrix(4.16667,0,0,4.16667,1223.85,347.975)"> <path d="M0,4.182C0.355,3.973 0.634,3.685 0.835,3.317C1.037,2.95 1.138,2.541 1.138,2.091C1.138,1.64 1.037,1.232 0.835,0.864C0.634,0.497 0.355,0.208 0,0C-0.355,-0.21 -0.758,-0.314 -1.208,-0.314C-1.659,-0.314 -2.064,-0.21 -2.423,0C-2.783,0.208 -3.061,0.497 -3.259,0.864C-3.456,1.232 -3.555,1.64 -3.555,2.091C-3.555,2.541 -3.456,2.95 -3.259,3.317C-3.061,3.685 -2.783,3.973 -2.423,4.182C-2.064,4.391 -1.659,4.496 -1.208,4.496C-0.758,4.496 -0.355,4.391 0,4.182M-2.773,4.745C-3.231,4.484 -3.588,4.121 -3.845,3.655C-4.101,3.188 -4.23,2.667 -4.23,2.091C-4.23,1.514 -4.101,0.993 -3.845,0.526C-3.588,0.06 -3.231,-0.303 -2.773,-0.563C-2.315,-0.825 -1.793,-0.954 -1.208,-0.954C-0.624,-0.954 -0.102,-0.823 0.355,-0.557C0.813,-0.293 1.172,0.07 1.428,0.532C1.685,0.995 1.813,1.514 1.813,2.091C1.813,2.667 1.685,3.187 1.428,3.649C1.172,4.111 0.813,4.475 0.355,4.739C-0.102,5.004 -0.624,5.136 -1.208,5.136C-1.793,5.136 -2.315,5.005 -2.773,4.745" style="fill:rgb(29,60,81);fill-rule:nonzero;"></path> </g> <g transform="matrix(4.16667,0,0,4.16667,1278.21,366.094)"> <path d="M0,-4.598C0.418,-4.151 0.628,-3.534 0.628,-2.744L0.628,0.669L-0.048,0.669L-0.048,-2.696C-0.048,-3.32 -0.193,-3.8 -0.486,-4.136C-0.778,-4.472 -1.197,-4.64 -1.742,-4.64C-2.097,-4.64 -2.417,-4.552 -2.702,-4.379C-2.986,-4.205 -3.209,-3.964 -3.371,-3.656C-3.533,-3.348 -3.614,-3 -3.614,-2.613L-3.614,0.669L-4.29,0.669L-4.29,-2.696C-4.29,-3.32 -4.436,-3.8 -4.728,-4.136C-5.02,-4.472 -5.439,-4.64 -5.984,-4.64C-6.339,-4.64 -6.659,-4.552 -6.944,-4.379C-7.228,-4.205 -7.449,-3.964 -7.607,-3.656C-7.765,-3.348 -7.844,-3 -7.844,-2.613L-7.844,0.669L-8.52,0.669L-8.52,-5.184L-7.903,-5.184L-7.892,-4.201C-7.678,-4.541 -7.406,-4.803 -7.074,-4.989C-6.742,-5.174 -6.371,-5.267 -5.96,-5.267C-5.454,-5.267 -5.022,-5.151 -4.663,-4.918C-4.303,-4.685 -4.045,-4.355 -3.887,-3.929C-3.673,-4.355 -3.377,-4.685 -2.998,-4.918C-2.619,-5.151 -2.196,-5.267 -1.73,-5.267C-0.995,-5.267 -0.419,-5.044 0,-4.598" style="fill:rgb(29,60,81);fill-rule:nonzero;"></path> </g> <g transform="matrix(4.16667,0,0,4.16667,1309.24,347.921)"> <path d="M0,4.207C0.352,4.006 0.626,3.723 0.823,3.36C1.021,2.997 1.12,2.578 1.12,2.104C1.12,1.63 1.021,1.211 0.823,0.848C0.626,0.484 0.352,0.202 0,-0C-0.351,-0.201 -0.752,-0.301 -1.202,-0.301C-1.653,-0.301 -2.052,-0.201 -2.399,-0C-2.747,0.202 -3.02,0.484 -3.217,0.848C-3.414,1.211 -3.513,1.63 -3.513,2.104C-3.513,2.578 -3.414,2.997 -3.217,3.36C-3.02,3.723 -2.747,4.006 -2.399,4.207C-2.052,4.409 -1.653,4.509 -1.202,4.509C-0.752,4.509 -0.351,4.409 0,4.207M1.795,-0.823L1.795,5.03L1.168,5.03L1.168,3.869C0.938,4.257 0.609,4.564 0.178,4.793C-0.253,5.022 -0.732,5.137 -1.262,5.137C-1.831,5.137 -2.336,5.009 -2.779,4.752C-3.221,4.496 -3.567,4.136 -3.815,3.674C-4.064,3.212 -4.188,2.688 -4.188,2.104C-4.188,1.519 -4.064,0.996 -3.815,0.533C-3.567,0.071 -3.221,-0.288 -2.779,-0.544C-2.336,-0.801 -1.831,-0.93 -1.262,-0.93C-0.725,-0.93 -0.243,-0.815 0.184,-0.586C0.611,-0.357 0.938,-0.045 1.168,0.35L1.168,-0.823L1.795,-0.823Z" style="fill:rgb(29,60,81);fill-rule:nonzero;"></path> </g> <g transform="matrix(4.16667,0,0,4.16667,1344.57,338.468)"> <path d="M0,7.098C-0.427,7.303 -0.829,7.406 -1.208,7.406C-1.801,7.406 -2.228,7.246 -2.488,6.926C-2.749,6.606 -2.879,6.127 -2.879,5.487L-2.879,2.05L-4.112,2.05L-4.112,1.446L-2.879,1.446L-2.879,-0.237L-2.216,-0.308L-2.216,1.446L-0.26,1.446L-0.26,2.05L-2.216,2.05L-2.216,5.487C-2.216,5.913 -2.141,6.237 -1.991,6.458C-1.841,6.679 -1.568,6.79 -1.173,6.79C-1.039,6.79 -0.885,6.766 -0.711,6.719C-0.538,6.671 -0.376,6.608 -0.225,6.529L0,7.098Z" style="fill:rgb(29,60,81);fill-rule:nonzero;"></path> </g> <g transform="matrix(4.16667,0,0,4.16667,1358.32,364.514)"> <path d="M0,-3.733C-0.407,-3.358 -0.642,-2.851 -0.705,-2.211L3.856,-2.211C3.849,-2.834 3.635,-3.338 3.217,-3.721C2.798,-4.104 2.249,-4.296 1.57,-4.296C0.93,-4.296 0.406,-4.108 0,-3.733M3.128,-4.551C3.574,-4.31 3.918,-3.968 4.159,-3.526C4.4,-3.084 4.521,-2.57 4.521,-1.985C4.521,-1.82 4.516,-1.697 4.509,-1.618L-0.705,-1.618C-0.65,-0.954 -0.415,-0.429 0,-0.042C0.414,0.345 0.954,0.539 1.617,0.539C2.028,0.539 2.423,0.46 2.802,0.302C3.182,0.144 3.47,-0.066 3.667,-0.326L4.13,0.077C3.853,0.424 3.492,0.695 3.045,0.888C2.599,1.082 2.119,1.179 1.605,1.179C1.021,1.179 0.501,1.048 0.047,0.788C-0.407,0.527 -0.76,0.165 -1.014,-0.297C-1.266,-0.759 -1.392,-1.286 -1.392,-1.879C-1.392,-2.463 -1.268,-2.987 -1.019,-3.449C-0.771,-3.911 -0.423,-4.27 0.023,-4.527C0.47,-4.784 0.981,-4.912 1.558,-4.912C2.158,-4.912 2.682,-4.792 3.128,-4.551" style="fill:rgb(29,60,81);fill-rule:nonzero;"></path> </g> <g transform="matrix(4.16667,0,0,4.16667,-3267.11,-5408.39)"> <rect x="976.842" y="1376.61" width="0.675" height="11.58" style="fill:rgb(29,60,81);"></rect> </g> <g transform="matrix(4.16667,0,0,4.16667,-3267.11,-5408.39)"> <rect x="1042.41" y="1376.61" width="0.675" height="11.58" style="fill:rgb(29,60,81);"></rect> </g> <g transform="matrix(4.16667,0,0,4.16667,854.75,347.984)"> <path d="M0,4.188C0.349,3.987 0.622,3.706 0.82,3.345C1.016,2.983 1.114,2.566 1.114,2.094C1.114,1.622 1.016,1.206 0.82,0.844C0.622,0.482 0.349,0.201 0,-0C-0.35,-0.2 -0.749,-0.3 -1.198,-0.3C-1.646,-0.3 -2.043,-0.2 -2.389,-0C-2.735,0.201 -3.006,0.482 -3.203,0.844C-3.4,1.206 -3.498,1.622 -3.498,2.094C-3.498,2.566 -3.4,2.983 -3.203,3.345C-3.006,3.706 -2.735,3.987 -2.389,4.188C-2.043,4.389 -1.646,4.489 -1.198,4.489C-0.749,4.489 -0.35,4.389 0,4.188M1.787,-0.82L1.787,5.008L1.162,5.008L1.162,3.852C0.933,4.237 0.605,4.544 0.177,4.772C-0.253,5 -0.729,5.114 -1.256,5.114C-1.823,5.114 -2.326,4.986 -2.767,4.73C-3.207,4.475 -3.551,4.117 -3.799,3.657C-4.046,3.197 -4.17,2.676 -4.17,2.094C-4.17,1.512 -4.046,0.991 -3.799,0.531C-3.551,0.071 -3.207,-0.287 -2.767,-0.543C-2.326,-0.798 -1.823,-0.926 -1.256,-0.926C-0.722,-0.926 -0.242,-0.812 0.183,-0.584C0.607,-0.356 0.933,-0.045 1.162,0.348L1.162,-0.82L1.787,-0.82Z" style="fill:rgb(29,60,81);fill-rule:nonzero;"></path> </g> <g transform="matrix(4.16667,0,0,4.16667,894.561,366.001)"> <path d="M0,-4.542C0.436,-4.086 0.655,-3.453 0.655,-2.643L0.655,0.684L-0.018,0.684L-0.018,-2.608C-0.018,-3.252 -0.179,-3.746 -0.501,-4.088C-0.824,-4.43 -1.284,-4.601 -1.882,-4.601C-2.29,-4.601 -2.656,-4.511 -2.978,-4.33C-3.301,-4.149 -3.551,-3.899 -3.727,-3.581C-3.905,-3.262 -3.993,-2.907 -3.993,-2.513L-3.993,0.684L-4.666,0.684L-4.666,-5.144L-4.052,-5.144L-4.04,-4.094C-3.813,-4.448 -3.502,-4.725 -3.108,-4.925C-2.715,-5.126 -2.283,-5.226 -1.811,-5.226C-1.04,-5.226 -0.437,-4.998 0,-4.542" style="fill:rgb(29,60,81);fill-rule:nonzero;"></path> </g> <g transform="matrix(4.16667,0,0,4.16667,925.626,347.984)"> <path d="M0,4.188C0.349,3.987 0.622,3.706 0.82,3.345C1.016,2.983 1.114,2.566 1.114,2.094C1.114,1.622 1.016,1.206 0.82,0.844C0.622,0.482 0.349,0.201 0,-0C-0.35,-0.2 -0.749,-0.3 -1.198,-0.3C-1.646,-0.3 -2.043,-0.2 -2.389,-0C-2.735,0.201 -3.006,0.482 -3.204,0.844C-3.4,1.206 -3.498,1.622 -3.498,2.094C-3.498,2.566 -3.4,2.983 -3.204,3.345C-3.006,3.706 -2.735,3.987 -2.389,4.188C-2.043,4.389 -1.646,4.489 -1.198,4.489C-0.749,4.489 -0.35,4.389 0,4.188M1.787,-0.82L1.787,5.008L1.162,5.008L1.162,3.852C0.933,4.237 0.605,4.544 0.177,4.772C-0.253,5 -0.729,5.114 -1.256,5.114C-1.823,5.114 -2.327,4.986 -2.767,4.73C-3.207,4.475 -3.551,4.117 -3.799,3.657C-4.046,3.197 -4.17,2.676 -4.17,2.094C-4.17,1.512 -4.046,0.991 -3.799,0.531C-3.551,0.071 -3.207,-0.287 -2.767,-0.543C-2.327,-0.798 -1.823,-0.926 -1.256,-0.926C-0.722,-0.926 -0.242,-0.812 0.183,-0.584C0.607,-0.356 0.933,-0.045 1.162,0.348L1.162,-0.82L1.787,-0.82Z" style="fill:rgb(29,60,81);fill-rule:nonzero;"></path> </g> <g transform="matrix(4.16667,0,0,4.16667,-3267.11,-5408.31)"> <rect x="1011.15" y="1378.26" width="0.672" height="8.257" style="fill:rgb(29,60,81);"></rect> </g> <g transform="matrix(4.16667,0,0,4.16667,979.958,380.548)"> <path d="M0,-8.635L0.732,-8.635L-3.02,0L-3.763,0L-2.524,-2.843L-4.931,-8.635L-4.199,-8.635L-2.878,-5.403L-2.147,-3.622L-1.391,-5.403L0,-8.635Z" style="fill:rgb(29,60,81);fill-rule:nonzero;"></path> </g> <g transform="matrix(4.16667,0,0,4.16667,995.488,345.231)"> <path d="M0,5.509C-0.448,5.332 -0.822,5.09 -1.12,4.784L-0.743,4.3C-0.499,4.567 -0.183,4.778 0.207,4.931C0.596,5.084 1.011,5.161 1.452,5.161C1.979,5.161 2.398,5.063 2.713,4.866C3.028,4.67 3.185,4.41 3.185,4.088C3.185,3.883 3.13,3.716 3.02,3.587C2.909,3.457 2.726,3.344 2.466,3.25C2.206,3.156 1.836,3.065 1.357,2.979C0.531,2.845 -0.055,2.654 -0.401,2.407C-0.747,2.159 -0.92,1.807 -0.92,1.351C-0.92,0.863 -0.703,0.472 -0.271,0.177C0.161,-0.118 0.743,-0.265 1.474,-0.265C1.931,-0.265 2.34,-0.204 2.702,-0.083C3.063,0.04 3.405,0.227 3.728,0.478L3.374,0.962C3.099,0.749 2.812,0.592 2.513,0.49C2.214,0.388 1.876,0.336 1.498,0.336C0.932,0.336 0.498,0.425 0.195,0.602C-0.108,0.779 -0.26,1.029 -0.26,1.351C-0.26,1.54 -0.208,1.697 -0.106,1.823C-0.004,1.949 0.169,2.053 0.414,2.135C0.657,2.218 0.999,2.299 1.439,2.377C2.32,2.527 2.942,2.731 3.303,2.991C3.665,3.25 3.846,3.62 3.846,4.099C3.846,4.603 3.625,5.008 3.185,5.315C2.744,5.621 2.162,5.774 1.439,5.774C0.928,5.774 0.449,5.686 0,5.509" style="fill:rgb(29,60,81);fill-rule:nonzero;"></path> </g> <g transform="matrix(4.16667,0,0,4.16667,1026.63,364.497)"> <path d="M0,-3.715C-0.404,-3.341 -0.639,-2.836 -0.701,-2.199L3.841,-2.199C3.832,-2.82 3.62,-3.322 3.204,-3.704C2.786,-4.085 2.239,-4.276 1.564,-4.276C0.927,-4.276 0.405,-4.089 0,-3.715M3.114,-4.529C3.559,-4.289 3.901,-3.949 4.141,-3.509C4.381,-3.068 4.5,-2.557 4.5,-1.975C4.5,-1.81 4.496,-1.688 4.489,-1.61L-0.701,-1.61C-0.646,-0.949 -0.412,-0.426 0,-0.041C0.414,0.345 0.95,0.538 1.611,0.538C2.019,0.538 2.413,0.459 2.79,0.302C3.168,0.144 3.455,-0.064 3.651,-0.324L4.112,0.077C3.836,0.423 3.477,0.693 3.032,0.885C2.587,1.078 2.11,1.174 1.599,1.174C1.017,1.174 0.5,1.045 0.048,0.785C-0.404,0.526 -0.756,0.166 -1.008,-0.294C-1.259,-0.754 -1.385,-1.279 -1.385,-1.869C-1.385,-2.451 -1.261,-2.972 -1.014,-3.432C-0.766,-3.892 -0.42,-4.25 0.024,-4.506C0.469,-4.761 0.978,-4.889 1.551,-4.889C2.149,-4.889 2.671,-4.769 3.114,-4.529" style="fill:rgb(29,60,81);fill-rule:nonzero;"></path> </g> </g> </g> </g> </svg> 